<svg xmlns="http://www.w3.org/2000/svg" viewBox="0 0 1440 320">
  <path fill="#3b82f6" fill-opacity="0.1" d="M0,224L48,213.3C96,203,192,181,288,181.3C384,181,480,203,576,218.7C672,235,768,245,864,229.3C960,213,1056,171,1152,165.3C1248,160,1344,192,1392,208L1440,224L1440,320L1392,320C1344,320,1248,320,1152,320C1056,320,960,320,864,320C768,320,672,320,576,320C480,320,384,320,288,320C192,320,96,320,48,320L0,320Z"></path>
  <path fill="#3b82f6" fill-opacity="0.05" d="M0,256L48,261.3C96,267,192,277,288,277.3C384,277,480,267,576,240C672,213,768,171,864,170.7C960,171,1056,213,1152,234.7C1248,256,1344,256,1392,256L1440,256L1440,320L1392,320C1344,320,1248,320,1152,320C1056,320,960,320,864,320C768,320,672,320,576,320C480,320,384,320,288,320C192,320,96,320,48,320L0,320Z"></path>
  <path fill="#4f46e5" fill-opacity="0.3" d="M0,288L48,282.7C96,277,192,267,288,245.3C384,224,480,192,576,192C672,192,768,224,864,224C960,224,1056,192,1152,186.7C1248,181,1344,203,1392,213.3L1440,224L1440,320L1392,320C1344,320,1248,320,1152,320C1056,320,960,320,864,320C768,320,672,320,576,320C480,320,384,320,288,320C192,320,96,320,48,320L0,320Z"></path>
</svg> 